<?xml version="1.0" encoding="UTF-8" standalone="no"?>
<svg xmlns="http://www.w3.org/2000/svg" xmlns:xlink="http://www.w3.org/1999/xlink" version="1.0" height="300px"
    xmlns:xapRights="http://ns.adobe.com/xap/1.0/rights/" xmlns:dc="http://purl.org/dc/elements/1.1/"
    xmlns:cc="http://creativecommons.org/ns#" xmlns:rdf="http://www.w3.org/1999/02/22-rdf-syntax-ns#" width="300px"
    viewBox="0 0 300px 300px" id="yapeal_ng_logo">
    <title>Yapeal-ng Monkey Logo</title>
    <defs>
        <path id="appendage" fill="#ffff83" stroke="#000000" stroke-width="1"
            d="m0,0 a10,4 0 1,0 20,0 a5,15 15 1,0 5,-30 a12,4 180 1,0 -25,0 a5,15 180 1,0 0,30 z m29,-21.5 h-14 v.75 h14 m-1,6.5 h-13 v.75 h13 m-3,6.5 h-10 v.75 h10"/>
        <radialGradient r="92%" fy="15%" fx="5%" cy="5%" cx="5%" id="rg01">
            <stop offset="0%" stop-color="#7070ff"/>
            <stop offset="25%" stop-color="#4040ff"/>
            <stop offset="67%" stop-color="#2020d0"/>
            <stop offset="92%" stop-color="#800080"/>
            <stop offset="95%" stop-color="#d01010"/>
        </radialGradient>
        <style type="text/css">
            @font-face { font-family: Brave New Era G98; src:url('./fonts/Brave-New-Era-G98.ttf.woff') format('woff'),
            url('./fonts/Brave-New-Era-G98.ttf.svg#Brave-New-Era-G98') format('svg'),
            url('./fonts/Brave-New-Era-G98.ttf.eot'), url('./fonts/Brave-New-Era-G98.ttf.eot?#iefix')
            format('embedded-opentype'); }
        </style>
    </defs>
    <rect x="0" y="0" height="300" width="300" fill="#0f500f" stroke="black" stroke-width="0"/>
    <g id="body" transform="translate(120,200)">
        <path id="tail" fill="none" stroke="#603000" stroke-linecap="round" stroke-width="10"
            d="m30.5,17 c 0,0 -5,-31 -39,-38 -67,-2.75 -81,33.5 -83.25,57.5 -2.5,21 18.25,45.75 50.25,49.25 19.5,2 71.5,0 122.25,1 24.5,.25 64.25,4 70,-27.5"/>
        <path id="body_outline" fill="#603000" stroke="black" stroke-width="0"
            d="m0,0 a30,30 0 1,0 60,0 a10,20 0 1,0 -60,0 z"/>
        <path id="chest_outline" fill="#ffff83" stroke="black" stroke-width=".5"
            d="m13,0 a17,17 0 1,0 34,0 a10,26 0 1,0 -34,0 z"/>
        <path id="belly_button" fill="#603000" stroke="black" stroke-width=".5" d="m29,0 a2,2 0 1,1 .1,.1 z"/>
    </g>
    <g id="head" transform="translate(65,90)">
        <path id="right_ear" fill="#ffff83" stroke="#000000" stroke-width="1"
            d="m-1.5,0 a20,18 230 1,1 0,-25 m0,20 a7,6 227.5 1,1 0,-13"/>
        <path id="left_ear" fill="#ffff83" stroke="#000000" stroke-width="1"
            d="M171,-2.5 a20,18 50 1,0 0,-25 m0,20 a7,6 47.5 1,0 0,-13"/>
        <ellipse id="head_outline" cx="85" cy="-10" rx="85" ry="67.5" fill="#ffff83" stroke="#603000" stroke-width="8"/>
        <path id="forehead" fill="#603000" stroke="#000000" stroke-width="0"
            d="M169,-14 a85,68 180 1,0 -170,2.5 h 3 a40,17.5 180 1,1 80,-7.5 h 1 a40,15 180 1,1 85,5 z"/>
        <ellipse id="right_eye" cx="45" cy="-10" rx="4" ry="7" fill="#000000" stroke="#000000" stroke-width="1"/>
        <ellipse id="left_eye" cx="120" cy="-10" rx="4" ry="7" fill="#000000" stroke="#000000" stroke-width="1"/>
        <ellipse id="mouth" cx="85" cy="28" rx="10" ry="4" fill="#000000" stroke="#000000" stroke-width="1"/>
    </g>
    <g id="banana" transform="translate(138,158)">
        <path id="banana_center" fill="#ffffcc" stroke="#000000" stroke-width="1"
            d="m0,0 a12,25 0 1,0 24,0 v-20 a12,20 180 1,0 -24,0 z"/>
        <path id="right_peel" fill="#ffff23" stroke="#000000" stroke-width="1"
            d="m14,25 c-1.5,-15 -9.5,-29 -17.5,-41.25 -12,-7.5 -18.25,17.75 -16.75,26.25 11,-16 19,16 32,15 l2.25,0 z"/>
        <path id="left_peel" fill="#ffff23" stroke="#000000" stroke-width="1"
            d="m14,25 c-1.5,-15 2.25,-31 8,-45 8,-13 22.25,7.5 23,17 -15,-10.25 -14.25,19.5 -25.5,25.25 -1.5,2 -3,3 -5.5,3 z"/>
    </g>
    <use id="right_hand" transform="rotate(-20)" x="50" y="225" xlink:href="#appendage"/>
    <use id="left_hand" transform="scale(-1,1) rotate(-20)" x="-228" y="120" xlink:href="#appendage"/>
    <use id="right_foot" transform="rotate(-10) scale(.9,.9)" x="72.5" y="272.5" xlink:href="#appendage"/>
    <use id="left_foot" transform="translate(195,230) scale(-.9,.9) rotate(-10)" xlink:href="#appendage"/>
    <text id="yapeal_ng_text" x="42.5" y="263" fill="url(#rg01)" font-family="Brave New Era G98" font-size="56"
        font-weight="900" line-height="100%">Yapeal-ng
    </text>
    <metadata>
        <rdf:RDF>
            <rdf:Description>
                <xapRights:Marked>True</xapRights:Marked>
            </rdf:Description>
            <rdf:Description>
                <xapRights:WebStatement rdf:resource="https://github.com/Yapeal/yapeal-ng"/>
            </rdf:Description>
            <rdf:Description>
                <xapRights:UsageTerms>
                    <rdf:Alt>
                        <rdf:li xml:lang="en_US">This work is licensed under a &lt;a rel=&quot;license&quot; href=&quot;http://creativecommons.org/licenses/by-sa/4.0/&quot;&gt;Creative
                            Commons Attribution-ShareAlike 4.0 International License&lt;/a&gt;.
                        </rdf:li>
                        <rdf:li xml:lang="en">This work is licensed under a &lt;a rel=&quot;license&quot; href=&quot;http://creativecommons.org/licenses/by-sa/4.0/&quot;&gt;Creative
                            Commons Attribution-ShareAlike 4.0 International License&lt;/a&gt;.
                        </rdf:li>
                    </rdf:Alt>
                </xapRights:UsageTerms>
            </rdf:Description>
            <rdf:Description>
                <dc:title>
                    <rdf:Alt>
                        <rdf:li xml:lang="en_US">Yapeal-ng Monkey Logo</rdf:li>
                    </rdf:Alt>
                </dc:title>
            </rdf:Description>
            <rdf:Description>
                <cc:license rdf:resource="http://creativecommons.org/licenses/by-sa/4.0/"/>
            </rdf:Description>
            <rdf:Description>
                <cc:attributionName>Michael Cummings</cc:attributionName>
            </rdf:Description>
            <cc:Work rdf:about="">
                <dc:format>image/svg+xml</dc:format>
                <dc:type rdf:resource="http://purl.org/dc/dcmitype/StillImage"/>
                <dc:title>Yapeal-ng Monkey Logo</dc:title>
                <cc:license rdf:resource="http://creativecommons.org/licenses/by-sa/3.0/"/>
                <dc:date>2016-07-07</dc:date>
                <dc:creator>
                    <cc:Agent>
                        <dc:title>Michael Cummings</dc:title>
                    </cc:Agent>
                </dc:creator>
                <dc:rights>
                    <cc:Agent>
                        <dc:title>Copyright 2016 Michael Cummings</dc:title>
                    </cc:Agent>
                </dc:rights>
                <dc:subject>
                    <rdf:Bag>
                        <rdf:li>Yapeal-ng monkey banana artwork</rdf:li>
                    </rdf:Bag>
                </dc:subject>
                <dc:description>Monkey eating a banana with tail wrapped around Yapeal-ng test. Used as logo for the
                    open source project Yapeal-ng.
                </dc:description>
            </cc:Work>
            <cc:License rdf:about="http://creativecommons.org/licenses/by-sa/3.0/">
                <cc:permits rdf:resource="http://creativecommons.org/ns#Reproduction"/>
                <cc:permits rdf:resource="http://creativecommons.org/ns#Distribution"/>
                <cc:requires rdf:resource="http://creativecommons.org/ns#Notice"/>
                <cc:requires rdf:resource="http://creativecommons.org/ns#Attribution"/>
                <cc:permits rdf:resource="http://creativecommons.org/ns#DerivativeWorks"/>
                <cc:requires rdf:resource="http://creativecommons.org/ns#ShareAlike"/>
            </cc:License>
        </rdf:RDF>
    </metadata>
</svg>
