<?xml version="1.0" standalone="no"?> <!DOCTYPE svg PUBLIC "-//W3C//DTD SVG 1.0//EN" "http://www.w3.org/TR/2001/REC-SVG-20010904/DTD/svg10.dtd" > <svg xmlns="http://www.w3.org/2000/svg" width="100%" height="100%">
<defs >
<font horiz-adv-x="782" ><font-face
    font-family="Brave New Era G98"
    units-per-em="2048"
    panose-1="0 0 4 0 0 0 0 0 0 0"
    ascent="1854"
    descent="-434"
    alphabetic="0" />
<missing-glyph horiz-adv-x="1024" d="M128 0V1854H896V0H128ZM256 128H768V1726H256V128Z" />
<glyph unicode=" " glyph-name="space" horiz-adv-x="738" />
<glyph unicode="!" glyph-name="exclam" horiz-adv-x="225" d="M182 389Q182 311 104 311Q23 311 23 389V1188Q23 1270 104 1270Q182 1270 182 1188V389ZM182 70Q182 -8 104 -8Q23 -8 23 70Q23 152 104 152Q182 152 182 70Z" />
<glyph unicode="&quot;" glyph-name="quotedbl" horiz-adv-x="546" d="M503 880Q503 850 484 823Q462 793 426 793Q391 793 367 817T342 877V1184Q342 1188 342 1192Q342 1222 361 1249Q382 1280 418 1280Q453 1280 477 1256T502 1196V889Q503 885 503 880ZM183
880Q183 850 164 823Q143 793 107 793Q72 793 48 817T23 877V1184Q23 1188 23 1192Q23 1222 41 1249Q63 1280 99 1280Q134 1280 158 1256T183 1196V889Q183 885 183 880Z" />
<glyph unicode="#" glyph-name="numbersign" horiz-adv-x="1194" d="M1151 397Q1151 362 1126 337T1065 311H905V168Q907 162 907 152Q907 122 885 97T834 72Q802 72 776 94T749 148Q749 152 750 156H745V311H426V160Q426 155 426 151Q426 118 406 92T352 66Q319
66 293 92T266 152V311H123Q115 309 107 309Q79 309 54 332T29 383Q29 415 52 441T107 467Q111 467 115 467V471H266V791H119Q113 790 108 790Q80 790 57 803Q23 831 23 866Q23 901 47 925T106 950H266V1094Q266 1099 266 1104Q266 1132 283 1151Q307 1188 340
1188Q375 1188 400 1163T426 1102V950H745V1098Q745 1102 745 1106Q745 1136 764 1163Q785 1194 821 1194Q856 1194 880 1170T905 1110V950H1049Q1053 951 1057 951Q1087 951 1114 932Q1145 910 1145 874Q1145 840 1121 816T1061 791H905V471H1057Q1062 472 1066
472Q1094 472 1122 449T1151 397ZM745 471V791H426V471H745Z" />
<glyph unicode="$" glyph-name="dollar" horiz-adv-x="866" d="M823 940Q823 918 813 905Q782 866 745 866Q729 866 707 877Q664 896 665 943L666 950H662Q662 1028 584 1028H502V709Q638 709 729 617T821 389Q821 256 728 163T502 70V-8Q502 -90 424 -90Q342
-90 342 -8V70H264Q161 70 92 139T23 311Q23 360 61 381Q82 392 102 392Q122 392 141 381Q184 357 182 313V307Q180 229 264 229H342V549Q210 549 117 642T23 868Q23 1001 117 1096Q209 1188 342 1188V1270Q342 1348 424 1348Q502 1348 502 1270V1188H584Q676 1188
747 1123T821 963Q823 950 823 940ZM342 709V1028Q276 1028 229 981T182 868Q182 803 229 756T342 709ZM662 389Q662 455 615 502T502 549V229Q568 229 615 276T662 389Z" />
<glyph unicode="%" glyph-name="percent" horiz-adv-x="1425" d="M1382 311Q1382 178 1289 85T1061 -8Q928 -8 836 85T743 311Q743 444 837 537T1063 631Q1195 631 1288 538T1382 311ZM1068 1191Q1068 1173 1059 1155L481 41Q460 -16 395 -16Q355 -16 334 33Q326
52 326 69Q326 87 334 102L911 1221Q940 1276 995 1276Q1037 1276 1059 1229Q1068 1209 1068 1191ZM662 950Q662 815 570 723T340 631Q207 631 115 724T23 950Q23 1082 116 1176T342 1270Q475 1270 567 1178Q662 1083 662 950ZM1223 311Q1223 377 1176 424T1063
471Q997 471 950 424T903 311Q903 246 949 200T1061 154Q1130 154 1176 200T1223 311ZM502 950Q502 1016 455 1063T342 1110Q276 1110 229 1063T182 950Q182 885 229 838T344 791Q409 791 455 838T502 950Z" />
<glyph unicode="&amp;" glyph-name="ampersand" horiz-adv-x="1110" d="M1067 395Q1067 365 1039 340T981 315H903Q903 183 810 90T584 -4H342Q210 -4 117 89T23 315V475Q23 622 133 717Q23 812 23 954Q23 1089 115 1183T342 1278H584Q718 1278 810 1184T903 954Q903
822 810 729T584 635H342Q274 635 228 589T182 475V315Q182 250 229 203T342 156H584Q649 156 696 203T743 315H502Q468 315 443 339T418 397Q418 429 443 452T502 475H981Q1015 475 1038 451Q1067 420 1067 395ZM743 954Q743 1022 697 1068T584 1114H342Q274 1114
228 1068T182 954Q182 889 229 842T342 795H584Q649 795 696 842T743 954Z" />
<glyph unicode="&apos;" glyph-name="quotesingle" horiz-adv-x="226" d="M183 880Q183 850 164 823Q143 793 107 793Q72 793 48 817T23 877V1184Q23 1188 23 1192Q23 1222 41 1249Q63 1280 99 1280Q134 1280 158 1256T183 1196V889Q183 885 183 880Z" />
<glyph unicode="(" glyph-name="parenleft" horiz-adv-x="705" d="M662 -139Q662 -217 584 -217Q346 -217 185 -57T23 340V819Q23 1058 184 1219T584 1380Q662 1380 662 1298Q662 1221 584 1221Q414 1221 298 1105T182 819V340Q182 171 298 57T584 -57Q662 -57 662 -139Z" />
<glyph unicode=")" glyph-name="parenright" horiz-adv-x="705" d="M662 340Q662 105 501 -56T104 -217Q23 -217 23 -139Q23 -57 104 -57Q273 -57 387 57T502 340V819Q502 988 388 1104T104 1221Q23 1221 23 1298Q23 1380 104 1380Q341 1380 501 1218T662 819V340Z" />
<glyph unicode="*" glyph-name="asterisk" horiz-adv-x="551" d="M348 1092Q348 1049 297 1028Q277 1020 258 1020Q213 1020 190 1073Q182 1093 182 1110Q182 1154 236 1176Q261 1186 276 1186Q308 1186 329 1153Q348 1125 348 1092ZM508 932Q508 890 457 868Q437
860 418 860Q372 860 350 913Q342 933 342 950Q342 995 395 1016Q421 1026 436 1026Q468 1026 488 996T508 932ZM348 932Q348 890 297 868Q277 860 258 860Q213 860 190 913Q182 933 182 950Q182 995 236 1016Q261 1026 276 1026Q308 1026 328 996T348 932ZM188
944Q188 902 137 881Q118 872 98 872Q53 872 31 926Q23 945 23 963Q23 1007 76 1028Q101 1038 117 1038Q148 1038 168 1008T188 944ZM348 772Q348 730 297 709Q277 700 258 700Q213 700 190 754Q182 773 182 791Q182 835 236 856Q261 866 276 866Q308 866 328 836T348
772Z" />
<glyph unicode="+" glyph-name="plus" horiz-adv-x="1188" d="M1145 641Q1145 606 1121 582T1061 557H659V172Q662 164 662 156Q662 127 637 102T584 76Q554 76 529 99T503 152Q503 157 504 160H500V557H119Q113 557 108 557Q80 557 57 569Q23 598 23 633Q23 668
47 692T106 717H500V1102Q499 1106 499 1110Q499 1143 520 1171T573 1200Q608 1200 635 1174Q659 1149 659 1114V717H1049Q1053 717 1057 717Q1087 717 1114 698Q1145 677 1145 641Z" />
<glyph unicode="," glyph-name="comma" horiz-adv-x="319" d="M276 75Q276 52 262 29L176 -127Q155 -182 97 -182Q53 -182 29 -127Q23 -112 23 -98Q23 -77 37 -57L115 94Q130 152 193 152Q252 152 271 102Q276 89 276 75Z" />
<glyph unicode="-" glyph-name="hyphen" horiz-adv-x="721" d="M691 641Q691 606 667 582T607 557H119Q113 557 108 557Q80 557 57 569Q23 598 23 633Q23 668 47 692T106 717H595Q599 717 604 717Q634 717 662 697T691 641Z" />
<glyph unicode="." glyph-name="period" horiz-adv-x="225" d="M182 66Q182 -12 104 -12Q23 -12 23 66Q23 147 104 147Q182 147 182 66Z" />
<glyph unicode="/" glyph-name="slash" horiz-adv-x="809" d="M766 1200Q766 1182 757 1163L179 49Q164 -10 97 -10Q54 -10 32 37Q23 56 23 74Q23 93 32 111L609 1225Q621 1258 650 1274Q674 1284 693 1284Q732 1284 757 1237Q766 1219 766 1200Z" />
<glyph unicode="0" glyph-name="zero" horiz-adv-x="1024" d="M981 397Q981 228 867 112T584 -4H424Q254 -4 137 113Q23 227 23 397V877Q23 1047 138 1162T424 1278H584Q753 1278 867 1162T981 877V397ZM821 397V877Q821 935 793 995L371 164Q395 156 424 156H584Q683
156 752 227T821 397ZM666 1102Q626 1114 584 1114H424Q325 1114 254 1045T182 877V397Q182 312 236 246L666 1102Z" />
<glyph unicode="1" glyph-name="one" horiz-adv-x="705" d="M662 66Q662 -12 584 -12H104Q23 -12 23 66Q23 147 104 147H264V999L190 930Q162 903 137 903Q109 903 80 933T51 991Q51 1018 80 1044L264 1217L285 1241Q288 1242 289 1245Q312 1266 342 1266Q424
1266 424 1184V147H584Q662 147 662 66Z" />
<glyph unicode="2" glyph-name="two" horiz-adv-x="949" d="M906 63Q906 32 883 9T829 -14Q821 -14 814 -12H23V365Q23 497 117 590T343 684H585Q650 684 697 731T744 844V946Q744 1012 697 1059T585 1106H265Q183 1106 183 1024Q183 978 138 954Q117 943 99 943Q76
943 54 961Q23 986 23 1026Q23 1125 101 1202Q166 1266 265 1266H585Q717 1266 810 1172T904 946V844Q904 712 811 618T585 524H343Q277 524 230 477T183 365V147H822Q857 147 881 123T906 63Z" />
<glyph unicode="3" glyph-name="three" horiz-adv-x="947" d="M904 307Q904 175 811 82T585 -12H343Q211 -12 118 81T24 307Q24 342 49 364T110 387Q142 387 163 364T184 307Q184 303 184 299Q186 237 235 190Q279 147 343 147H585Q651 147 698 194T745 307V385Q745
453 699 499T585 545H356Q351 544 347 544Q317 544 290 563Q259 585 259 621Q259 656 283 680T343 705H585Q651 705 698 751T745 864V946Q745 1012 698 1059T585 1106H343Q277 1106 231 1059T184 946Q184 898 138 877Q116 862 102 862Q66 862 42 895Q23 922 23
949Q23 956 24 963Q33 1090 124 1178T343 1266H585Q717 1266 810 1172T904 946V864Q904 722 794 627Q904 531 904 385V307Z" />
<glyph unicode="4" glyph-name="four" horiz-adv-x="1032" d="M989 389Q989 357 963 332T905 307H745V66H741L742 59Q743 27 718 7T659 -14Q628 -14 606 7T584 60Q584 67 586 74V307H106Q72 307 48 329T23 385Q23 403 29 418L352 1208Q359 1234 385 1252T438 1270Q467
1270 496 1229Q510 1208 510 1188Q510 1174 504 1159L217 467H586V692Q584 698 584 709Q584 739 606 763T657 788Q689 788 715 766T742 712Q742 708 741 705H745V467H893Q898 467 903 467Q931 467 950 451Q989 424 989 389Z" />
<glyph unicode="5" glyph-name="five" horiz-adv-x="948" d="M905 1190Q905 1155 881 1131T821 1106H182V741Q254 786 342 786H584Q716 786 809 693T903 467V307Q903 175 810 82T584 -12H342Q158 -12 63 147Q48 174 48 197Q48 220 63 242Q90 279 125 279Q181 279
203 225Q253 147 342 147H584Q649 147 696 194T743 307V467Q743 533 696 580T584 627H342Q251 627 203 545H23V1266H809Q813 1266 817 1266Q848 1266 874 1247Q905 1226 905 1190Z" />
<glyph unicode="6" glyph-name="six" horiz-adv-x="946" d="M903 952Q903 899 858 877Q837 866 819 866Q781 866 757 899Q742 919 743 947V954Q745 1008 692 1061Q647 1106 584 1106H342Q276 1106 229 1059T182 946V741Q254 786 342 786H584Q716 786 809 693T903
467V307Q903 175 810 82T584 -12H342Q210 -12 117 81T23 307V946Q23 1078 116 1172T342 1266H584Q715 1266 809 1172T903 952ZM743 307V467Q743 533 696 580T584 627H342Q276 627 229 580T182 467V307Q182 241 229 194T342 147H584Q649 147 696 194T743 307Z" />
<glyph unicode="7" glyph-name="seven" horiz-adv-x="1027" d="M984 1188Q984 1169 978 1155L494 41Q476 -20 413 -20Q382 -20 361 7T339 68Q339 74 343 94L789 1106H265Q183 1106 183 1024Q183 978 138 954Q117 943 99 943Q76 943 54 961Q23 986 23 1026Q23 1125
101 1202Q166 1266 265 1266H904Q984 1266 984 1188Z" />
<glyph unicode="8" glyph-name="eight" horiz-adv-x="946" d="M903 307Q903 175 810 82T584 -12H342Q210 -12 117 81T23 307V385Q23 531 133 627Q23 722 23 864V946Q23 1078 116 1172T342 1266H584Q716 1266 809 1172T903 946V864Q903 722 793 627Q903 531 903
385V307ZM743 864V946Q743 1012 696 1059T584 1106H342Q276 1106 229 1059T182 946V864Q182 798 229 752T342 705H584Q649 705 696 751T743 864ZM743 307V385Q743 453 697 499T584 545H342Q274 545 228 499T182 385V307Q182 241 229 194T342 147H584Q649 147 696
194T743 307Z" />
<glyph unicode="9" glyph-name="nine" horiz-adv-x="946" d="M903 303Q903 171 810 78T584 -16H342Q211 -16 117 78T23 297Q23 350 68 373Q88 383 107 383Q145 383 169 349Q183 330 183 303L182 295Q181 241 234 188Q279 143 342 143H584Q650 143 696 190T743
303V508Q668 467 584 467H342Q210 467 117 560T23 786V942Q23 1075 116 1168T342 1262H584Q717 1262 810 1169T903 942V303ZM743 786V942Q743 1008 697 1055T584 1102H342Q276 1102 229 1055T182 942V786Q182 721 229 674T342 627H584Q650 627 696 674T743 786Z"
/>
<glyph unicode=":" glyph-name="colon" horiz-adv-x="225" d="M182 721Q182 643 104 643Q23 643 23 721Q23 803 104 803Q182 803 182 721ZM182 66Q182 -12 104 -12Q23 -12 23 66Q23 147 104 147Q182 147 182 66Z" />
<glyph unicode=";" glyph-name="semicolon" horiz-adv-x="322" d="M279 721Q279 643 201 643Q119 643 119 721Q119 803 201 803Q279 803 279 721ZM276 75Q276 52 262 29L176 -127Q155 -182 97 -182Q53 -182 29 -127Q23 -112 23 -98Q23 -77 37 -57L115 94Q130 152
193 152Q252 152 271 102Q276 89 276 75Z" />
<glyph unicode="&lt;" glyph-name="less" horiz-adv-x="942" d="M899 950Q899 911 854 889L289 606L850 319Q882 311 891 274Q896 262 896 249Q896 231 887 213Q862 164 823 164Q805 164 780 176L100 520Q23 523 23 606Q23 685 100 688L780 1032Q805 1044 823
1044Q862 1044 887 995Q899 971 899 950Z" />
<glyph unicode="=" glyph-name="equal" horiz-adv-x="1194" d="M1145 883Q1145 848 1121 824T1061 799V795H119Q115 794 110 794Q80 794 53 813Q23 835 23 870Q23 905 47 929T106 954H1049Q1055 956 1065 956Q1093 956 1119 935T1145 883ZM1151 403Q1151 369 1125
344T1065 319V315H123Q118 315 114 315Q85 315 57 338T29 389Q29 424 55 451Q80 475 115 475H1057Q1064 477 1072 477Q1101 477 1126 455T1151 403Z" />
<glyph unicode="&gt;" glyph-name="greater" horiz-adv-x="942" d="M899 606Q899 523 825 520L141 176Q117 164 98 164Q62 164 41 201Q27 224 27 249Q27 261 31 274Q40 310 72 319L637 606L72 889Q23 913 23 952Q23 971 35 995Q59 1044 98 1044Q117 1044 141 1032L825
688Q899 685 899 606Z" />
<glyph unicode="?" glyph-name="question" horiz-adv-x="947" d="M904 872Q904 740 811 647T585 553Q514 553 470 508T425 393V315H421Q421 267 380 242Q363 233 343 233Q313 233 289 256T264 310Q264 317 265 324V393Q265 529 357 621T585 713Q650 713 697 760T744
872V954Q744 1020 697 1067T585 1114H265Q183 1114 183 1032Q183 987 138 963Q117 951 99 951Q76 951 54 969Q23 994 23 1035Q23 1133 101 1210Q166 1274 265 1274H585Q717 1274 810 1181T904 954V872ZM427 78Q427 46 403 19T347 -8Q317 -8 288 18T259 72Q259 102
283 131T337 160Q366 160 396 134T427 78Z" />
<glyph unicode="@" glyph-name="at" horiz-adv-x="1343" d="M1300 389Q1300 220 1186 106T903 -8H424Q255 -8 139 106T23 389V868Q23 1039 136 1154T424 1270H821Q924 1270 993 1201T1063 1028V311Q1063 229 981 229Q932 229 911 274Q839 229 748 229H584Q451
229 356 324Q264 416 264 549V709H262Q262 842 355 935T584 1028H748Q829 1028 903 991V1028Q903 1110 821 1110H424Q324 1110 253 1040T182 868V389Q182 288 252 220T424 152H903Q1002 152 1071 221T1141 389H1300ZM903 496V758L899 762Q886 791 883 795Q837 868
748 868H584Q518 868 471 821T424 709V549Q424 483 471 436T584 389H748Q831 389 879 459Q888 473 903 496Z" />
<glyph unicode="A" glyph-name="A" horiz-adv-x="946" d="M903 82H899Q899 0 821 0Q739 0 739 82Q739 86 743 98V479H182V82Q182 0 104 0Q23 0 23 82V1040Q23 1141 93 1209T264 1278H662Q763 1278 833 1210T903 1040V82ZM743 639V1040Q743 1118 662 1118H264Q182
1118 182 1040V639H743Z" />
<glyph unicode="B" glyph-name="B" horiz-adv-x="946" d="M903 242Q903 139 834 70T662 0H264Q161 0 92 69T23 242V1040Q23 1141 93 1209T264 1278H662Q763 1278 833 1210T903 1040V881Q903 734 793 639Q903 544 903 401V242ZM743 881V1040Q743 1118 662 1118H264Q182
1118 182 1040V721H584Q651 721 697 767T743 881ZM743 242V401Q743 467 696 514T584 561H182V242Q182 160 264 160H662Q743 160 743 242Z" />
<glyph unicode="C" glyph-name="C" horiz-adv-x="946" d="M903 242Q903 139 834 70T662 0H264Q161 0 92 69T23 242V1040Q23 1141 93 1209T264 1278H662Q763 1278 833 1210T903 1040Q903 958 821 958Q782 958 744 1038T662 1118H264Q182 1118 182 1040V242Q182
160 264 160H662Q705 160 743 239T821 319Q903 319 903 242Z" />
<glyph unicode="D" glyph-name="D" horiz-adv-x="1024" d="M981 401Q981 232 867 116T584 0H264Q161 0 92 69T23 242V1040Q23 1141 93 1209T264 1278H584Q753 1278 867 1164T981 881V401ZM821 401V881Q821 980 752 1049T584 1118H264Q182 1118 182 1040V242Q182
160 264 160H584Q685 160 753 230T821 401Z" />
<glyph unicode="E" glyph-name="E" horiz-adv-x="786" d="M743 82Q743 0 662 0H264Q161 0 92 69T23 242V1040Q23 1141 93 1209T264 1278H662Q743 1278 743 1200Q743 1118 662 1118H264Q182 1118 182 1040V721H584Q662 721 662 639Q662 561 584 561H182V242Q182
160 264 160H662Q743 160 743 82Z" />
<glyph unicode="F" glyph-name="F" horiz-adv-x="709" d="M743 1200Q743 1118 662 1118H264Q182 1118 182 1040V721H584Q662 721 662 639Q662 561 584 561H182V82Q182 0 104 0Q23 0 23 82V1040Q23 1141 93 1209T264 1278H662Q743 1278 743 1200Z" />
<glyph unicode="G" glyph-name="G" horiz-adv-x="946" d="M903 242Q903 139 834 70T662 0H264Q161 0 92 69T23 242V1040Q23 1141 93 1209T264 1278H662Q763 1278 833 1210T903 1040Q903 958 821 958Q743 958 743 1040Q743 1118 662 1118H264Q182 1118 182 1040V242Q182
160 264 160H662Q743 160 743 242V401Q743 479 662 479H424Q358 492 358 561Q358 626 424 639H662Q763 639 833 571T903 401V242Z" />
<glyph unicode="H" glyph-name="H" horiz-adv-x="950" d="M907 66Q907 -12 829 -12Q748 -12 748 66V549H182V66Q182 -12 104 -12Q23 -12 23 66V1192Q23 1274 104 1274Q182 1274 182 1192V713H748V1192Q748 1274 829 1274Q907 1274 907 1192V66Z" />
<glyph unicode="I" glyph-name="I" horiz-adv-x="225" d="M182 66Q182 -12 104 -12Q23 -12 23 66V1192Q23 1274 104 1274Q182 1274 182 1192V66Z" />
<glyph unicode="J" glyph-name="J" horiz-adv-x="791" d="M748 229Q748 129 677 59T506 -12H264Q164 -12 94 58T23 229Q23 307 104 307Q182 307 182 229Q182 147 264 147H506Q588 147 588 229V1192Q588 1274 666 1274Q748 1274 748 1192V229Z" />
<glyph unicode="K" glyph-name="K" horiz-adv-x="975" d="M932 39Q932 10 902 -15T842 -41Q807 -41 780 -4L375 553L182 336V66Q182 -12 104 -12Q23 -12 23 66V1192Q23 1274 104 1274Q182 1274 182 1192V582L768 1245Q797 1278 825 1278Q853 1278 882 1250T911
1194Q911 1167 887 1139L481 676L911 90Q932 62 932 39Z" />
<glyph unicode="L" glyph-name="L" horiz-adv-x="791" d="M748 66Q748 -12 666 -12H264Q164 -12 94 58T23 229V1192Q23 1274 104 1274Q182 1274 182 1192V229Q182 147 264 147H666Q748 147 748 66Z" />
<glyph unicode="M" glyph-name="M" horiz-adv-x="1352" d="M1309 66Q1309 -12 1231 -12Q1149 -12 1149 66V905L748 254Q732 193 670 193H666Q600 193 588 254L182 905V66Q182 -12 104 -12Q23 -12 23 66V1192Q23 1274 104 1274Q167 1274 182 1212L666 430L1149
1212H1153Q1168 1274 1231 1274Q1309 1274 1309 1192V66Z" />
<glyph unicode="N" glyph-name="N" horiz-adv-x="1194" d="M1151 66Q1142 17 1112 -2Q1097 -12 1082 -12H1069Q1037 -12 1012 16L185 975V66Q185 -12 107 -12Q25 -12 25 66V1180Q23 1191 23 1201Q23 1232 47 1255T103 1278Q130 1278 156 1257Q159 1250 164 1249L992
287V1192Q992 1274 1069 1274Q1151 1274 1151 1192V66Z" />
<glyph unicode="O" glyph-name="O" horiz-adv-x="1110" d="M1067 389Q1067 219 952 104T666 -12H424Q254 -12 139 103T23 389V872Q23 1042 139 1158T424 1274H666Q836 1274 951 1158T1067 872V389ZM907 389V872Q907 973 837 1043T666 1114H424Q325 1114 254 1043T182
872V389Q182 290 253 219T424 147H666Q767 147 837 217T907 389Z" />
<glyph unicode="P" glyph-name="P" horiz-adv-x="946" d="M903 795Q903 662 810 569T584 475H182V74Q182 37 156 14L158 16Q132 -6 106 -6Q94 -6 72 4Q23 26 23 74V1036Q23 1137 93 1205T264 1274H584Q716 1274 809 1181T903 954V795ZM743 795V954Q743 1020 696
1067T584 1114H264Q182 1114 182 1036V635H584Q649 635 696 682T743 795Z" />
<glyph unicode="Q" glyph-name="Q" horiz-adv-x="1190" d="M1147 -35Q1147 -115 1075 -115Q1047 -115 1018 -86V-82H1014L895 70Q787 -4 662 -4H424Q255 -4 139 110T23 393V877Q23 1045 139 1159T424 1274H662Q831 1274 947 1160T1063 877V393Q1063 284 1001 188L1141
16Q1147 -14 1147 -35ZM903 393V877Q903 978 833 1046T662 1114H424Q325 1114 254 1045T182 877V393Q182 292 252 224T424 156H662Q731 156 793 193L584 451Q592 453 592 473Q592 483 588 503T584 535Q584 554 592 561Q617 584 645 584Q678 584 707 549Q710 548
711 545L891 324Q903 360 903 393Z" />
<glyph unicode="R" glyph-name="R" horiz-adv-x="969" d="M926 51Q926 21 896 -6T836 -33Q803 -33 776 4L432 475H182V74Q182 43 160 19T106 -6Q94 -6 72 4Q23 26 23 74V1036Q23 1137 93 1205T264 1274H584Q716 1274 809 1181T903 954V795Q903 671 824 582T621
479L907 98Q926 74 926 51ZM743 795V954Q743 1020 696 1067T584 1114H264Q182 1114 182 1036V637L585 635Q650 635 696 682T743 795Z" />
<glyph unicode="S" glyph-name="S" horiz-adv-x="947" d="M904 1035Q904 996 870 969Q849 952 827 952Q809 952 788 963Q743 987 743 1036Q743 1114 662 1114H342Q276 1114 229 1067T182 954V877Q182 809 228 763T342 717H584Q718 717 810 623T903 393V315Q903
183 810 90T584 -4H264Q163 -4 93 64T23 233Q23 283 61 307Q81 319 101 319Q121 319 141 307Q184 281 182 237V229Q180 156 264 156H584Q649 156 696 203T743 315V393Q743 461 697 509T584 557H342Q209 557 116 650T23 877V954Q23 1087 116 1180T342 1274H662Q762
1274 827 1210Q904 1136 904 1035Z" />
<glyph unicode="T" glyph-name="T" horiz-adv-x="1024" d="M981 1196Q981 1114 903 1114H584V74Q584 -4 502 -4Q424 -4 424 74V1114H104Q23 1114 23 1196Q23 1274 104 1274H903Q981 1274 981 1196Z" />
<glyph unicode="U" glyph-name="U" horiz-adv-x="1024" d="M981 393Q981 224 867 110T584 -4H424Q255 -4 139 110T23 393V1196Q23 1274 104 1274Q182 1274 182 1196V393Q182 292 252 224T424 156H584Q683 156 752 225T821 393V1196Q821 1274 903 1274Q981 1274
981 1196V393Z" />
<glyph unicode="V" glyph-name="V" horiz-adv-x="1077" d="M1034 631Q1034 501 952 389L596 25Q572 -8 530 -8H526Q485 -8 461 25L100 393H104Q23 481 23 631V1188Q23 1270 104 1270Q182 1270 182 1188V631Q182 553 248 463L530 176L805 459Q874 530 874 631V1188Q874
1270 952 1270Q1034 1270 1034 1188V631Z" />
<glyph unicode="W" glyph-name="W" horiz-adv-x="1663" d="M1620 631Q1620 491 1542 389L1264 25Q1239 -8 1198 -8H1194Q1156 -8 1128 25L821 389L547 25Q522 -8 477 -8H473Q434 -8 408 25L154 336L100 393H104Q23 481 23 631V1188Q23 1270 104 1270Q182 1270
182 1188V631Q182 549 236 483Q240 473 252 455L473 193L674 459Q687 472 690 483Q743 549 743 631V1188Q743 1270 821 1270Q903 1270 903 1188V631Q903 547 952 483Q959 473 973 455L1194 193L1395 455L1391 459Q1460 528 1460 631V1188Q1460 1270 1542 1270Q1620
1270 1620 1188V631Z" />
<glyph unicode="X" glyph-name="X" horiz-adv-x="946" d="M903 66Q903 -12 821 -12Q743 -12 743 66V147Q743 224 690 295L678 311L465 520L248 311Q182 224 182 147V66Q182 -12 104 -12Q23 -12 23 66V147Q23 274 92 373Q102 387 109 389L350 627L104 872Q23 960
23 1110V1188Q23 1270 104 1270Q182 1270 182 1188V1110Q182 1033 248 942L465 733L678 942Q743 1033 743 1110V1188Q743 1270 821 1270Q903 1270 903 1188V1110Q903 954 821 872L575 627L834 373Q903 273 903 147V66Z" />
<glyph unicode="Y" glyph-name="Y" horiz-adv-x="946" d="M903 1028Q903 905 821 786L547 508V70Q547 -8 465 -8Q387 -8 387 70V524L154 737L100 791H104Q23 885 23 1028V1208Q23 1286 104 1286Q182 1286 182 1208V1028Q182 952 248 864L473 651L674 856Q688 874
690 881Q743 946 743 1028V1208Q743 1286 821 1286Q903 1286 903 1208V1028Z" />
<glyph unicode="Z" glyph-name="Z" horiz-adv-x="1028" d="M985 70Q985 -8 907 -8H121Q107 -12 95 -12Q65 -12 44 12T23 66Q23 92 43 119Q50 121 51 127L752 1110H109Q27 1110 27 1188Q27 1270 109 1270H907Q928 1267 952 1253L965 1241Q985 1221 985 1200V1167Q973
1143 956 1126L260 152H907Q985 152 985 70Z" />
<glyph unicode="[" glyph-name="bracketleft" horiz-adv-x="627" d="M584 -139Q584 -217 502 -217H424Q255 -217 139 -103T23 180V979Q23 1149 137 1266Q250 1380 424 1380H502Q584 1380 584 1298Q584 1221 502 1221H424Q324 1221 253 1150T182 979V180Q182 79
252 11T424 -57H502Q584 -57 584 -139Z" />
<glyph unicode="\" glyph-name="backslash" horiz-adv-x="809" d="M766 74Q766 56 757 37Q734 -10 694 -10Q674 -10 651 0Q622 16 610 49L32 1163Q23 1182 23 1200Q23 1219 32 1237Q56 1284 98 1284Q164 1284 179 1225L757 111Q766 93 766 74Z" />
<glyph unicode="]" glyph-name="bracketright" horiz-adv-x="627" d="M584 180Q584 11 468 -103T182 -217H104Q23 -217 23 -139Q23 -57 104 -57H182Q281 -57 352 12T424 180V979Q424 1080 354 1150T182 1221H104Q23 1221 23 1298Q23 1380 104 1380H182Q356 1380
469 1266Q584 1149 584 979V180Z" />
<glyph unicode="^" glyph-name="asciicircum" horiz-adv-x="558" d="M515 928Q515 911 508 893Q487 840 442 840Q382 840 360 893L270 1040L176 893Q154 840 96 840Q53 840 29 893Q23 906 23 922Q23 943 37 967L193 1221Q208 1274 270 1274Q323 1274 344 1225L504
967Q515 948 515 928Z" />
<glyph unicode="_" glyph-name="underscore" horiz-adv-x="1405" d="M1362 -301Q1362 -336 1338 -360T1278 -385H119Q113 -386 108 -386Q80 -386 57 -373Q23 -344 23 -309Q23 -274 47 -250T106 -225H1266Q1270 -225 1274 -225Q1304 -225 1331 -244Q1362 -265 1362 -301Z" />
<glyph unicode="`" glyph-name="grave" horiz-adv-x="394" d="M351 1154Q351 1139 344 1123Q323 1070 279 1070Q219 1070 197 1123L37 1381Q23 1404 23 1425Q23 1440 29 1455Q50 1504 107 1504Q165 1504 180 1451L340 1197H336Q351 1177 351 1154Z" />
<glyph unicode="a" glyph-name="a" horiz-adv-x="864" d="M821 70Q821 -8 743 -8Q694 -8 670 37Q598 -8 510 -8H342Q210 -8 117 85T23 311V471Q23 603 116 697T342 791H510Q598 791 670 745Q694 791 743 791Q821 791 821 713V70ZM662 258V520Q653 538 645 557Q596
631 510 631H342Q276 631 229 584T182 471V311Q182 246 229 199T342 152H510Q598 152 637 217L662 258Z" />
<glyph unicode="b" glyph-name="b" horiz-adv-x="946" d="M903 311Q903 179 810 86T584 -8H264Q163 -8 93 60T23 229V1192Q23 1239 72 1262Q94 1272 106 1272Q137 1272 159 1248T182 1192V791H584Q716 791 809 697T903 471V311ZM743 311V471Q743 537 697 583T584
631L180 633L182 229Q183 152 264 152H584Q649 152 696 199T743 311Z" />
<glyph unicode="c" glyph-name="c" horiz-adv-x="926" d="M883 217Q883 198 870 176H874L870 172L854 143Q767 -8 584 -8H342Q210 -8 117 85T23 311V471Q23 603 116 697T342 791H584Q764 791 858 635Q859 632 874 598Q871 591 871 586Q871 582 876 577T881 563Q881
561 872 542T862 517Q862 516 862 516Q835 483 803 483Q774 483 748 508Q748 508 735 520Q727 538 719 557Q670 631 584 631H342Q276 631 229 584T182 471V311Q182 246 229 199T342 152H584Q665 152 715 217Q745 297 795 297Q826 297 854 273T883 217Z" />
<glyph unicode="d" glyph-name="d" horiz-adv-x="946" d="M903 229Q903 128 833 60T662 -8H342Q210 -8 117 85T23 311V471Q23 604 116 697T342 791L743 793V1192Q743 1227 772 1249Q795 1272 819 1272Q831 1272 854 1262Q903 1239 903 1192V229ZM743 229V631H342Q276
631 229 584T182 471V311Q182 246 229 199T342 152H662Q743 152 743 229Z" />
<glyph unicode="e" glyph-name="e" horiz-adv-x="938" d="M895 389Q895 311 817 311H182Q182 246 229 199T342 152H575Q622 152 657 172Q660 164 680 164Q686 164 707 168Q730 177 744 177Q754 177 760 172Q793 145 793 113Q793 68 739 37Q662 -8 575 -8H342Q210
-8 117 85T23 311V471Q23 603 116 697T342 791H584Q712 791 805 694Q895 601 895 471V389ZM735 471Q735 539 689 585T575 631H342Q276 631 229 584T182 471H735Z" />
<glyph unicode="f" glyph-name="f" horiz-adv-x="672" d="M743 950Q743 872 662 872Q584 872 584 950Q584 1016 537 1063T424 1110H264Q182 1110 182 1032V713H502Q584 713 584 631Q584 549 502 549H182V70Q182 -8 104 -8Q23 -8 23 70V1032Q23 1133 93 1201T264
1270H424Q556 1270 649 1176T743 950Z" />
<glyph unicode="g" glyph-name="g" horiz-adv-x="946" d="M903 -328Q903 -428 833 -498T662 -569H342Q210 -569 117 -476T23 -250Q23 -168 104 -168Q182 -168 182 -250Q182 -316 229 -363T342 -410H662Q743 -410 743 -328V-8H342Q210 -8 117 85T23 311V471Q23
603 116 697T342 791H662Q765 791 834 722T903 549V-328ZM743 152V549Q743 631 662 631H342Q276 631 229 584T182 471V311Q182 246 229 199T342 152H743Z" />
<glyph unicode="h" glyph-name="h" horiz-adv-x="946" d="M903 70Q903 -8 821 -8Q743 -8 743 70V471Q743 537 696 584T584 631H182V70Q182 -8 104 -8Q23 -8 23 70V1192Q23 1239 72 1262Q94 1272 106 1272Q137 1272 159 1248T182 1192V1192L180 793L584 791Q716
790 809 697T903 471V70Z" />
<glyph unicode="i" glyph-name="i" horiz-adv-x="225" d="M182 1200Q182 1122 104 1122Q23 1122 23 1200Q23 1282 104 1282Q182 1282 182 1200ZM182 82Q182 4 104 4Q23 4 23 82V721Q23 803 104 803Q182 803 182 721V82Z" />
<glyph unicode="j" glyph-name="j" horiz-adv-x="299" d="M211 1200Q211 1122 133 1122Q51 1122 51 1200Q51 1282 133 1282Q211 1282 211 1200ZM211 -315Q211 -414 142 -485T-27 -557H-186Q-287 -557 -358 -485Q-428 -416 -428 -315Q-428 -238 -346 -238Q-268
-238 -268 -315Q-268 -397 -186 -397H-27Q51 -397 51 -315V721Q51 803 133 803Q211 803 211 721V-315Z" />
<glyph unicode="k" glyph-name="k" horiz-adv-x="791" d="M748 74Q748 45 719 17T662 -12Q635 -12 608 12L272 324V328L182 258V82Q182 4 104 4Q23 4 23 82V1200Q23 1282 104 1282Q182 1282 182 1200V459L616 786Q644 807 668 807Q695 807 723 776Q748 749 748
719Q748 688 711 659L412 430L719 131Q748 103 748 74Z" />
<glyph unicode="l" glyph-name="l" horiz-adv-x="225" d="M182 82Q182 4 104 4Q23 4 23 82V1200Q23 1282 104 1282Q182 1282 182 1200V82Z" />
<glyph unicode="m" glyph-name="m" horiz-adv-x="1343" d="M1300 82Q1300 4 1223 4Q1141 4 1141 82V483Q1141 551 1095 597T981 643H903Q837 643 790 596T743 483V82Q743 4 662 4Q584 4 584 82V483Q584 549 537 596T424 643H342Q276 643 229 596T182 483V82Q182
4 104 4Q23 4 23 82V483Q23 616 116 709T342 803H424Q566 803 662 692Q760 803 903 803H981Q1114 803 1207 710T1300 483V82Z" />
<glyph unicode="n" glyph-name="n" horiz-adv-x="864" d="M821 82Q821 4 743 4Q662 4 662 82V483Q662 549 615 596T502 643H342Q276 643 229 596T182 483V82Q182 4 104 4Q23 4 23 82V483Q23 616 116 709T342 803H502Q635 803 728 710T821 483V82Z" />
<glyph unicode="o" glyph-name="o" horiz-adv-x="864" d="M821 324Q821 190 728 97T502 4H342Q210 4 117 97T23 324V483Q23 616 116 709T342 803H502Q635 803 728 710T821 483V324ZM662 324V483Q662 549 615 596T502 643H342Q276 643 229 596T182 483V324Q182
258 229 211T342 164H502Q568 164 615 211T662 324Z" />
<glyph unicode="p" glyph-name="p" horiz-adv-x="946" d="M903 324Q903 191 810 98T584 4H182V-397Q182 -426 160 -452T111 -479Q93 -479 72 -467Q23 -445 23 -397V561Q23 664 92 733T264 803H584Q716 803 809 710T903 483V324ZM743 324V483Q743 549 696 596T584
643H264Q182 643 182 561V164H584Q649 164 696 211T743 324Z" />
<glyph unicode="q" glyph-name="q" horiz-adv-x="946" d="M903 -397Q903 -445 854 -467Q833 -479 815 -479Q785 -479 764 -453T743 -397V4H342Q210 4 117 97T23 324V483Q23 616 116 709T342 803H662Q765 803 834 734T903 561V-397ZM743 164V561Q743 643 662 643H342Q276
643 229 596T182 483V324Q182 258 229 211T342 164H743Z" />
<glyph unicode="r" glyph-name="r" horiz-adv-x="786" d="M743 471Q743 393 662 393Q584 393 584 471Q584 537 537 584T424 631H338Q249 631 203 557Q198 552 195 537L186 520H182V70Q182 -8 104 -8Q23 -8 23 70V713Q23 791 104 791Q153 791 174 745Q249 791 338
791H424Q556 791 649 697T743 471Z" />
<glyph unicode="s" glyph-name="s" horiz-adv-x="788" d="M745 556Q745 514 714 487Q692 469 667 469Q649 469 630 479Q585 503 585 553Q585 631 503 631H265Q183 631 183 553Q183 471 265 471H503Q606 471 675 402T744 229Q744 131 673 62T503 -8H265Q166 -8
101 55Q23 132 23 231Q23 272 54 297Q76 314 99 314Q117 314 138 303Q183 279 183 229Q183 152 265 152H503Q585 152 585 229Q585 311 503 311H265Q162 311 93 380T23 553Q23 654 93 722T265 791H503Q601 791 667 729Q745 656 745 556Z" />
<glyph unicode="t" glyph-name="t" horiz-adv-x="524" d="M481 872Q481 791 399 791H182V70Q182 -8 104 -8Q23 -8 23 70V1192Q23 1270 104 1270Q182 1270 182 1192V950H399Q481 950 481 872Z" />
<glyph unicode="u" glyph-name="u" horiz-adv-x="864" d="M821 311Q821 178 728 85T502 -8H342Q210 -8 117 85T23 311V713Q23 791 104 791Q182 791 182 713V311Q182 246 229 199T342 152H502Q568 152 615 199T662 311V713Q662 791 743 791Q821 791 821 713V311Z" />
<glyph unicode="v" glyph-name="v" horiz-adv-x="946" d="M903 524Q903 395 821 283L547 25Q523 -8 477 -8H473Q431 -8 408 25L154 229L100 287H104Q23 375 23 524V713Q23 791 104 791Q182 791 182 713V524Q182 443 236 377L248 356L473 168L674 352Q743 440 743
524V713Q743 791 821 791Q903 791 903 713V524Z" />
<glyph unicode="w" glyph-name="w" horiz-adv-x="1343" d="M1300 471Q1300 351 1223 229L1026 25Q1002 -8 961 -8H956Q912 -8 891 25L711 180L662 233L465 25Q441 -8 399 -8H395Q354 -8 330 25L154 180L100 233H104Q23 328 23 471V713Q23 791 104 791Q182 791
182 713V471Q182 395 236 324L248 307L391 176L514 299Q528 317 530 324Q584 389 584 471V713Q584 791 662 791Q743 791 743 713V471Q743 389 793 324L805 307L952 176L1071 299Q1078 308 1092 324Q1141 388 1141 471V713Q1141 791 1223 791Q1300 791 1300 713V471Z"
/>
<glyph unicode="x" glyph-name="x" horiz-adv-x="864" d="M821 70Q821 -8 743 -8Q662 -8 662 70V152Q662 219 573 268Q496 311 424 311Q355 311 274 266Q182 215 182 152V70Q182 -8 104 -8Q23 -8 23 70V152Q23 293 178 393Q23 491 23 631V713Q23 791 104 791Q182
791 182 713V631Q182 568 274 516Q355 471 424 471Q496 471 573 514Q662 563 662 631V713Q662 791 743 791Q821 791 821 713V631Q821 492 670 393Q821 291 821 152V70Z" />
<glyph unicode="y" glyph-name="y" horiz-adv-x="946" d="M903 -328Q903 -428 833 -498T662 -569H342Q210 -569 117 -476T23 -250Q23 -168 104 -168Q182 -168 182 -250Q182 -316 229 -363T342 -410H662Q743 -410 743 -328V-8H342Q210 -8 117 85T23 311V713Q23
791 104 791Q182 791 182 713V311Q182 246 229 199T342 152H743V713Q743 791 821 791Q903 791 903 713V-328Z" />
<glyph unicode="z" glyph-name="z" horiz-adv-x="868" d="M825 70Q825 -8 748 -8H121Q110 -11 99 -11Q69 -11 46 13T23 70Q23 98 43 119L51 127L547 631H109Q27 631 27 713Q27 791 109 791H748Q825 781 825 721V713Q825 686 809 664Q804 656 797 647L297 152H748Q825
152 825 70Z" />
<glyph unicode="{" glyph-name="braceleft" horiz-adv-x="627" d="M584 -139Q584 -217 502 -217Q288 -195 160 -76Q23 52 23 262Q23 446 145 582Q23 717 23 901Q23 1103 161 1241T502 1380Q584 1380 584 1298Q584 1221 502 1221Q370 1221 276 1127T182 901Q182
773 264 688Q314 610 317 582Q315 523 264 471Q182 387 182 262Q182 130 276 37T502 -57Q584 -57 584 -139Z" />
<glyph unicode="|" glyph-name="bar" horiz-adv-x="225" d="M182 -139Q182 -217 104 -217Q23 -217 23 -139V1356Q23 1438 104 1438Q182 1438 182 1356V-139Z" />
<glyph unicode="}" glyph-name="braceright" horiz-adv-x="627" d="M584 262Q584 52 446 -76Q318 -195 104 -217Q23 -217 23 -139Q23 -57 104 -57Q237 -57 330 36T424 262Q424 387 342 471Q292 523 289 582Q292 610 342 688Q424 773 424 901Q424 1033 331 1127T104
1221Q23 1221 23 1298Q23 1380 104 1380Q306 1380 445 1242T584 901Q584 717 461 582Q584 446 584 262Z" />
<glyph unicode="~" glyph-name="asciitilde" horiz-adv-x="1184" d="M1141 901Q1141 768 1048 675T821 582Q689 582 596 675T502 901Q502 967 455 1014T342 1061Q276 1061 229 1014T182 901V741Q182 659 104 659Q23 659 23 741V901Q23 1033 116 1127T342 1221Q475
1221 568 1128T662 901Q662 835 708 788T821 741Q887 741 934 788T981 901V1061Q981 1139 1063 1139Q1141 1139 1141 1061V901Z" />
</font>
</defs>
</svg>
